<mxfile host="Electron" modified="2024-10-04T17:25:53.668Z" agent="Mozilla/5.0 (Windows NT 10.0; Win64; x64) AppleWebKit/537.36 (KHTML, like Gecko) draw.io/24.5.1 Chrome/124.0.6367.207 Electron/30.0.6 Safari/537.36" etag="F7AtHCra4fKYHh6cinTJ" version="24.5.1" type="device">
  <diagram name="Página-1" id="orvlKT9HrA6a7F0d7umj">
    <mxGraphModel dx="819" dy="482" grid="1" gridSize="10" guides="1" tooltips="1" connect="1" arrows="1" fold="1" page="1" pageScale="1" pageWidth="827" pageHeight="1169" math="0" shadow="0">
      <root>
        <mxCell id="0" />
        <mxCell id="1" parent="0" />
        <mxCell id="s-4YIMDH7jWA21LrrwNs-1" value="" style="endArrow=none;html=1;rounded=0;" edge="1" parent="1">
          <mxGeometry width="50" height="50" relative="1" as="geometry">
            <mxPoint x="120" y="360" as="sourcePoint" />
            <mxPoint x="680" y="360" as="targetPoint" />
          </mxGeometry>
        </mxCell>
        <mxCell id="s-4YIMDH7jWA21LrrwNs-2" value="" style="endArrow=none;html=1;rounded=0;" edge="1" parent="1">
          <mxGeometry width="50" height="50" relative="1" as="geometry">
            <mxPoint x="120" y="240" as="sourcePoint" />
            <mxPoint x="680" y="240" as="targetPoint" />
          </mxGeometry>
        </mxCell>
        <mxCell id="s-4YIMDH7jWA21LrrwNs-3" value="" style="endArrow=none;html=1;rounded=0;" edge="1" parent="1">
          <mxGeometry width="50" height="50" relative="1" as="geometry">
            <mxPoint x="120" y="480" as="sourcePoint" />
            <mxPoint x="680" y="480" as="targetPoint" />
          </mxGeometry>
        </mxCell>
        <mxCell id="s-4YIMDH7jWA21LrrwNs-8" value="" style="rounded=0;whiteSpace=wrap;html=1;fillColor=none;" vertex="1" parent="1">
          <mxGeometry x="320" y="130" width="360" height="110" as="geometry" />
        </mxCell>
        <mxCell id="s-4YIMDH7jWA21LrrwNs-5" value="&lt;font style=&quot;font-size: 24px;&quot;&gt;Zonas&lt;/font&gt;" style="text;html=1;align=center;verticalAlign=middle;whiteSpace=wrap;rounded=0;" vertex="1" parent="1">
          <mxGeometry x="471" y="141" width="60" height="30" as="geometry" />
        </mxCell>
        <mxCell id="s-4YIMDH7jWA21LrrwNs-6" value="&lt;font style=&quot;font-size: 18px;&quot;&gt;Juntas&lt;/font&gt;" style="text;html=1;align=center;verticalAlign=middle;whiteSpace=wrap;rounded=0;" vertex="1" parent="1">
          <mxGeometry x="374" y="200" width="60" height="30" as="geometry" />
        </mxCell>
        <mxCell id="s-4YIMDH7jWA21LrrwNs-7" value="&lt;font style=&quot;font-size: 18px;&quot;&gt;Separadas&lt;/font&gt;" style="text;html=1;align=center;verticalAlign=middle;whiteSpace=wrap;rounded=0;" vertex="1" parent="1">
          <mxGeometry x="560" y="200" width="60" height="30" as="geometry" />
        </mxCell>
        <mxCell id="s-4YIMDH7jWA21LrrwNs-9" value="" style="endArrow=none;html=1;rounded=0;exitX=0;exitY=0.5;exitDx=0;exitDy=0;entryX=1;entryY=0.5;entryDx=0;entryDy=0;" edge="1" parent="1" source="s-4YIMDH7jWA21LrrwNs-8" target="s-4YIMDH7jWA21LrrwNs-8">
          <mxGeometry width="50" height="50" relative="1" as="geometry">
            <mxPoint x="420" y="310" as="sourcePoint" />
            <mxPoint x="470" y="260" as="targetPoint" />
          </mxGeometry>
        </mxCell>
        <mxCell id="s-4YIMDH7jWA21LrrwNs-10" value="" style="endArrow=none;html=1;rounded=0;" edge="1" parent="1">
          <mxGeometry width="50" height="50" relative="1" as="geometry">
            <mxPoint x="500" y="480" as="sourcePoint" />
            <mxPoint x="500" y="185" as="targetPoint" />
          </mxGeometry>
        </mxCell>
        <mxCell id="s-4YIMDH7jWA21LrrwNs-13" value="" style="rounded=0;whiteSpace=wrap;html=1;fillColor=none;" vertex="1" parent="1">
          <mxGeometry x="120" y="240" width="40" height="120" as="geometry" />
        </mxCell>
        <mxCell id="s-4YIMDH7jWA21LrrwNs-14" value="" style="rounded=0;whiteSpace=wrap;html=1;fillColor=none;" vertex="1" parent="1">
          <mxGeometry x="120" y="360" width="40" height="120" as="geometry" />
        </mxCell>
        <mxCell id="s-4YIMDH7jWA21LrrwNs-15" value="&lt;font style=&quot;font-size: 24px;&quot;&gt;HeatMap&lt;/font&gt;" style="text;html=1;align=center;verticalAlign=middle;whiteSpace=wrap;rounded=0;rotation=-90;" vertex="1" parent="1">
          <mxGeometry x="110" y="285" width="60" height="30" as="geometry" />
        </mxCell>
        <mxCell id="s-4YIMDH7jWA21LrrwNs-16" value="&lt;font style=&quot;font-size: 24px;&quot;&gt;BarPlot&lt;/font&gt;" style="text;html=1;align=center;verticalAlign=middle;whiteSpace=wrap;rounded=0;rotation=-90;" vertex="1" parent="1">
          <mxGeometry x="110" y="405" width="60" height="30" as="geometry" />
        </mxCell>
        <mxCell id="s-4YIMDH7jWA21LrrwNs-17" value="" style="endArrow=none;html=1;rounded=0;entryX=1;entryY=1;entryDx=0;entryDy=0;" edge="1" parent="1" target="s-4YIMDH7jWA21LrrwNs-8">
          <mxGeometry width="50" height="50" relative="1" as="geometry">
            <mxPoint x="680" y="480" as="sourcePoint" />
            <mxPoint x="660" y="270" as="targetPoint" />
          </mxGeometry>
        </mxCell>
        <mxCell id="s-4YIMDH7jWA21LrrwNs-18" value="" style="endArrow=none;html=1;rounded=0;exitX=1;exitY=0.5;exitDx=0;exitDy=0;" edge="1" parent="1" source="s-4YIMDH7jWA21LrrwNs-13">
          <mxGeometry width="50" height="50" relative="1" as="geometry">
            <mxPoint x="260" y="330" as="sourcePoint" />
            <mxPoint x="680" y="300" as="targetPoint" />
          </mxGeometry>
        </mxCell>
        <mxCell id="s-4YIMDH7jWA21LrrwNs-19" value="" style="endArrow=none;html=1;rounded=0;exitX=1;exitY=0.5;exitDx=0;exitDy=0;" edge="1" parent="1" source="s-4YIMDH7jWA21LrrwNs-14">
          <mxGeometry width="50" height="50" relative="1" as="geometry">
            <mxPoint x="200" y="421" as="sourcePoint" />
            <mxPoint x="680" y="421" as="targetPoint" />
          </mxGeometry>
        </mxCell>
        <mxCell id="s-4YIMDH7jWA21LrrwNs-20" value="" style="endArrow=none;html=1;rounded=0;entryX=0;entryY=1;entryDx=0;entryDy=0;" edge="1" parent="1" target="s-4YIMDH7jWA21LrrwNs-8">
          <mxGeometry width="50" height="50" relative="1" as="geometry">
            <mxPoint x="320" y="480" as="sourcePoint" />
            <mxPoint x="340" y="270" as="targetPoint" />
          </mxGeometry>
        </mxCell>
        <mxCell id="s-4YIMDH7jWA21LrrwNs-22" value="&lt;font style=&quot;font-size: 14px;&quot;&gt;Superífice&lt;/font&gt;" style="text;html=1;align=center;verticalAlign=middle;whiteSpace=wrap;rounded=0;rotation=-45;" vertex="1" parent="1">
          <mxGeometry x="166" y="254" width="60" height="30" as="geometry" />
        </mxCell>
        <mxCell id="s-4YIMDH7jWA21LrrwNs-23" value="&lt;font style=&quot;font-size: 14px;&quot;&gt;Convecção&lt;/font&gt;" style="text;html=1;align=center;verticalAlign=middle;whiteSpace=wrap;rounded=0;rotation=-45;" vertex="1" parent="1">
          <mxGeometry x="162" y="314" width="60" height="30" as="geometry" />
        </mxCell>
        <mxCell id="s-4YIMDH7jWA21LrrwNs-32" value="&lt;font style=&quot;font-size: 14px;&quot;&gt;Superífice&lt;/font&gt;" style="text;html=1;align=center;verticalAlign=middle;whiteSpace=wrap;rounded=0;rotation=-45;" vertex="1" parent="1">
          <mxGeometry x="161" y="375" width="60" height="30" as="geometry" />
        </mxCell>
        <mxCell id="s-4YIMDH7jWA21LrrwNs-33" value="&lt;font style=&quot;font-size: 14px;&quot;&gt;Convecção&lt;/font&gt;" style="text;html=1;align=center;verticalAlign=middle;whiteSpace=wrap;rounded=0;rotation=-45;" vertex="1" parent="1">
          <mxGeometry x="163" y="433" width="60" height="30" as="geometry" />
        </mxCell>
        <mxCell id="s-4YIMDH7jWA21LrrwNs-34" value="" style="endArrow=none;html=1;rounded=0;" edge="1" parent="1">
          <mxGeometry width="50" height="50" relative="1" as="geometry">
            <mxPoint x="230" y="480" as="sourcePoint" />
            <mxPoint x="230" y="240" as="targetPoint" />
          </mxGeometry>
        </mxCell>
        <mxCell id="s-4YIMDH7jWA21LrrwNs-35" value="&lt;font style=&quot;font-size: 18px;&quot;&gt;Anual&lt;/font&gt;" style="text;html=1;align=center;verticalAlign=middle;whiteSpace=wrap;rounded=0;" vertex="1" parent="1">
          <mxGeometry x="244" y="240" width="60" height="30" as="geometry" />
        </mxCell>
        <mxCell id="s-4YIMDH7jWA21LrrwNs-36" value="&lt;font style=&quot;font-size: 18px;&quot;&gt;Mensal&lt;/font&gt;" style="text;html=1;align=center;verticalAlign=middle;whiteSpace=wrap;rounded=0;" vertex="1" parent="1">
          <mxGeometry x="244" y="270" width="60" height="30" as="geometry" />
        </mxCell>
        <mxCell id="s-4YIMDH7jWA21LrrwNs-37" value="" style="endArrow=none;html=1;rounded=0;" edge="1" parent="1">
          <mxGeometry width="50" height="50" relative="1" as="geometry">
            <mxPoint x="230" y="270" as="sourcePoint" />
            <mxPoint x="680" y="270" as="targetPoint" />
          </mxGeometry>
        </mxCell>
        <mxCell id="s-4YIMDH7jWA21LrrwNs-38" value="&lt;font style=&quot;font-size: 18px;&quot;&gt;Anual&lt;/font&gt;" style="text;html=1;align=center;verticalAlign=middle;whiteSpace=wrap;rounded=0;" vertex="1" parent="1">
          <mxGeometry x="244" y="299" width="60" height="30" as="geometry" />
        </mxCell>
        <mxCell id="s-4YIMDH7jWA21LrrwNs-39" value="&lt;font style=&quot;font-size: 18px;&quot;&gt;Mensal&lt;/font&gt;" style="text;html=1;align=center;verticalAlign=middle;whiteSpace=wrap;rounded=0;" vertex="1" parent="1">
          <mxGeometry x="244" y="329" width="60" height="30" as="geometry" />
        </mxCell>
        <mxCell id="s-4YIMDH7jWA21LrrwNs-40" value="" style="endArrow=none;html=1;rounded=0;" edge="1" parent="1">
          <mxGeometry width="50" height="50" relative="1" as="geometry">
            <mxPoint x="230" y="329" as="sourcePoint" />
            <mxPoint x="680" y="329" as="targetPoint" />
          </mxGeometry>
        </mxCell>
        <mxCell id="s-4YIMDH7jWA21LrrwNs-41" value="&lt;font style=&quot;font-size: 18px;&quot;&gt;Anual&lt;/font&gt;" style="text;html=1;align=center;verticalAlign=middle;whiteSpace=wrap;rounded=0;" vertex="1" parent="1">
          <mxGeometry x="244" y="360" width="60" height="30" as="geometry" />
        </mxCell>
        <mxCell id="s-4YIMDH7jWA21LrrwNs-42" value="&lt;font style=&quot;font-size: 18px;&quot;&gt;Mensal&lt;/font&gt;" style="text;html=1;align=center;verticalAlign=middle;whiteSpace=wrap;rounded=0;" vertex="1" parent="1">
          <mxGeometry x="244" y="390" width="60" height="30" as="geometry" />
        </mxCell>
        <mxCell id="s-4YIMDH7jWA21LrrwNs-43" value="" style="endArrow=none;html=1;rounded=0;" edge="1" parent="1">
          <mxGeometry width="50" height="50" relative="1" as="geometry">
            <mxPoint x="230" y="390" as="sourcePoint" />
            <mxPoint x="680" y="390" as="targetPoint" />
          </mxGeometry>
        </mxCell>
        <mxCell id="s-4YIMDH7jWA21LrrwNs-44" value="&lt;font style=&quot;font-size: 18px;&quot;&gt;Anual&lt;/font&gt;" style="text;html=1;align=center;verticalAlign=middle;whiteSpace=wrap;rounded=0;" vertex="1" parent="1">
          <mxGeometry x="244" y="420" width="60" height="30" as="geometry" />
        </mxCell>
        <mxCell id="s-4YIMDH7jWA21LrrwNs-45" value="&lt;font style=&quot;font-size: 18px;&quot;&gt;Mensal&lt;/font&gt;" style="text;html=1;align=center;verticalAlign=middle;whiteSpace=wrap;rounded=0;" vertex="1" parent="1">
          <mxGeometry x="244" y="450" width="60" height="30" as="geometry" />
        </mxCell>
        <mxCell id="s-4YIMDH7jWA21LrrwNs-46" value="" style="endArrow=none;html=1;rounded=0;" edge="1" parent="1">
          <mxGeometry width="50" height="50" relative="1" as="geometry">
            <mxPoint x="230" y="450" as="sourcePoint" />
            <mxPoint x="680" y="450" as="targetPoint" />
          </mxGeometry>
        </mxCell>
        <mxCell id="s-4YIMDH7jWA21LrrwNs-47" value="" style="verticalLabelPosition=bottom;verticalAlign=top;html=1;shape=mxgraph.basic.tick;fillColor=#d5e8d4;strokeColor=#82b366;" vertex="1" parent="1">
          <mxGeometry x="394" y="245" width="20" height="20" as="geometry" />
        </mxCell>
        <mxCell id="s-4YIMDH7jWA21LrrwNs-48" value="" style="verticalLabelPosition=bottom;verticalAlign=top;html=1;shape=mxgraph.basic.tick;fillColor=#d5e8d4;strokeColor=#82b366;" vertex="1" parent="1">
          <mxGeometry x="580" y="245" width="20" height="20" as="geometry" />
        </mxCell>
        <mxCell id="s-4YIMDH7jWA21LrrwNs-49" value="" style="verticalLabelPosition=bottom;verticalAlign=top;html=1;shape=mxgraph.basic.tick;fillColor=#d5e8d4;strokeColor=#82b366;" vertex="1" parent="1">
          <mxGeometry x="394" y="275" width="20" height="20" as="geometry" />
        </mxCell>
        <mxCell id="s-4YIMDH7jWA21LrrwNs-50" value="" style="verticalLabelPosition=bottom;verticalAlign=top;html=1;shape=mxgraph.basic.tick;fillColor=#d5e8d4;strokeColor=#82b366;" vertex="1" parent="1">
          <mxGeometry x="580" y="275" width="20" height="20" as="geometry" />
        </mxCell>
        <mxCell id="s-4YIMDH7jWA21LrrwNs-51" value="" style="verticalLabelPosition=bottom;verticalAlign=top;html=1;shape=mxgraph.basic.tick;fillColor=#d5e8d4;strokeColor=#82b366;" vertex="1" parent="1">
          <mxGeometry x="394" y="304" width="20" height="20" as="geometry" />
        </mxCell>
        <mxCell id="s-4YIMDH7jWA21LrrwNs-53" value="" style="verticalLabelPosition=bottom;verticalAlign=top;html=1;shape=mxgraph.basic.tick;fillColor=#d5e8d4;strokeColor=#82b366;" vertex="1" parent="1">
          <mxGeometry x="580" y="304" width="20" height="20" as="geometry" />
        </mxCell>
        <mxCell id="s-4YIMDH7jWA21LrrwNs-54" value="" style="verticalLabelPosition=bottom;verticalAlign=top;html=1;shape=mxgraph.basic.tick;fillColor=#d5e8d4;strokeColor=#82b366;" vertex="1" parent="1">
          <mxGeometry x="394" y="334" width="20" height="20" as="geometry" />
        </mxCell>
        <mxCell id="s-4YIMDH7jWA21LrrwNs-55" value="" style="verticalLabelPosition=bottom;verticalAlign=top;html=1;shape=mxgraph.basic.tick;fillColor=#d5e8d4;strokeColor=#82b366;" vertex="1" parent="1">
          <mxGeometry x="580" y="334" width="20" height="20" as="geometry" />
        </mxCell>
        <mxCell id="s-4YIMDH7jWA21LrrwNs-56" value="" style="verticalLabelPosition=bottom;verticalAlign=top;html=1;shape=mxgraph.basic.tick;fillColor=#d5e8d4;strokeColor=#82b366;" vertex="1" parent="1">
          <mxGeometry x="394" y="425" width="20" height="20" as="geometry" />
        </mxCell>
        <mxCell id="s-4YIMDH7jWA21LrrwNs-57" value="" style="verticalLabelPosition=bottom;verticalAlign=top;html=1;shape=mxgraph.basic.tick;fillColor=#d5e8d4;strokeColor=#82b366;" vertex="1" parent="1">
          <mxGeometry x="580" y="425" width="20" height="20" as="geometry" />
        </mxCell>
        <mxCell id="s-4YIMDH7jWA21LrrwNs-58" value="" style="verticalLabelPosition=bottom;verticalAlign=top;html=1;shape=mxgraph.basic.x;fillColor=#f8cecc;strokeColor=#b85450;" vertex="1" parent="1">
          <mxGeometry x="394" y="365" width="20" height="20" as="geometry" />
        </mxCell>
        <mxCell id="s-4YIMDH7jWA21LrrwNs-59" value="" style="verticalLabelPosition=bottom;verticalAlign=top;html=1;shape=mxgraph.basic.x;fillColor=#f8cecc;strokeColor=#b85450;" vertex="1" parent="1">
          <mxGeometry x="580" y="365" width="20" height="20" as="geometry" />
        </mxCell>
        <mxCell id="s-4YIMDH7jWA21LrrwNs-60" value="" style="verticalLabelPosition=bottom;verticalAlign=top;html=1;shape=mxgraph.basic.x;fillColor=#f8cecc;strokeColor=#b85450;" vertex="1" parent="1">
          <mxGeometry x="394" y="395" width="20" height="20" as="geometry" />
        </mxCell>
        <mxCell id="s-4YIMDH7jWA21LrrwNs-61" value="" style="verticalLabelPosition=bottom;verticalAlign=top;html=1;shape=mxgraph.basic.x;fillColor=#f8cecc;strokeColor=#b85450;" vertex="1" parent="1">
          <mxGeometry x="580" y="395" width="20" height="20" as="geometry" />
        </mxCell>
        <mxCell id="s-4YIMDH7jWA21LrrwNs-62" value="" style="verticalLabelPosition=bottom;verticalAlign=top;html=1;shape=mxgraph.basic.x;fillColor=#f8cecc;strokeColor=#b85450;" vertex="1" parent="1">
          <mxGeometry x="394" y="455" width="20" height="20" as="geometry" />
        </mxCell>
        <mxCell id="s-4YIMDH7jWA21LrrwNs-63" value="" style="verticalLabelPosition=bottom;verticalAlign=top;html=1;shape=mxgraph.basic.x;fillColor=#f8cecc;strokeColor=#b85450;" vertex="1" parent="1">
          <mxGeometry x="580" y="455" width="20" height="20" as="geometry" />
        </mxCell>
        <mxCell id="s-4YIMDH7jWA21LrrwNs-64" value="&lt;div style=&quot;&quot;&gt;&lt;span style=&quot;font-size: 24px; font-family: Georgia; background-color: initial;&quot;&gt;Gráficos atualmente disponíveis na calculadora&lt;/span&gt;&lt;/div&gt;" style="text;html=1;align=center;verticalAlign=middle;whiteSpace=wrap;rounded=0;" vertex="1" parent="1">
          <mxGeometry x="120" y="60" width="200" height="180" as="geometry" />
        </mxCell>
      </root>
    </mxGraphModel>
  </diagram>
</mxfile>
